# xmcd
#
# Track frame offsets: 
#        150
#        11077
#        23126
#        33668
#        51533
#        62222
#        76597
#        85748
#        98829
#        116390
#        129499
#        146668
#
# Disc length: 2108 seconds
#
# Revision: 0
# Processed by: cddbd v1.5.2PL0 Copyright (c) Steve Scherf et al.
# Submitted via: ExactAudioCopyFreeDBPlugin 1.0
#
DISCID=9a083a0c
DTITLE=Mitchell John - Mitchell John's Christmas
DYEAR=2011
DGENRE=Country
TTITLE0=Little Toy Trains
TTITLE1=Kids
TTITLE2=Frosty the Snowman
TTITLE3=It's Never Gonna Snow on Me
TTITLE4=Holly Leaves
TTITLE5=My Christmas Gift to You
TTITLE6=Winter Wonderland
TTITLE7=Christmas Day
TTITLE8=These Cows Don't Know That it's Christmas
TTITLE9=If I Get Home On Christmas Day
TTITLE10=It's The Night After Christmas
TTITLE11=The Christmas Song
EXTD=
EXTT0=
EXTT1=
EXTT2=
EXTT3=
EXTT4=
EXTT5=
EXTT6=
EXTT7=
EXTT8=
EXTT9=
EXTT10=
EXTT11=
PLAYORDER=
